<svg width="20" height="20" viewBox="0 0 20 20" fill="none" xmlns="http://www.w3.org/2000/svg">
<path d="M16.8282 4.58722C15.2661 3.02513 12.7334 3.02513 11.1713 4.58722L11.0822 4.67633C11.3664 4.84417 11.6343 5.05016 11.8785 5.29433C12.1226 5.53849 12.3286 5.80637 12.4965 6.09054L12.5856 6.00144C13.3666 5.22039 14.6329 5.22039 15.414 6.00144C16.195 6.78248 16.195 8.04881 15.414 8.82986L9.12156 15.1223C7.94999 16.2939 6.0505 16.2939 4.87892 15.1223C3.70735 13.9507 3.70735 12.0512 4.87892 10.8797L8.34296 7.41565C8.73349 7.02513 9.36665 7.02513 9.75717 7.41565C10.1477 7.80617 10.1477 8.43934 9.75717 8.82986L7.05054 11.5365C6.66002 11.927 6.66002 12.5602 7.05054 12.9507C7.44107 13.3412 8.07423 13.3412 8.46476 12.9507L11.1714 10.2441C12.343 9.0725 12.343 7.17301 11.1714 6.00144C9.99981 4.82986 8.10032 4.82986 6.92875 6.00144L3.46471 9.46544C1.51209 11.4181 1.51209 14.5839 3.46471 16.5365C5.41733 18.4891 8.58316 18.4891 10.5358 16.5365L16.8282 10.2441C18.3903 8.68198 18.3903 6.14932 16.8282 4.58722Z" fill="#2C2D2E"/>
</svg>
